<svg xmlns="http://www.w3.org/2000/svg" width="80" height="80" viewBox="0 0 80 80" role="img" aria-labelledby="title">
  <title>Excel Compare icono 80</title>
  <rect width="80" height="80" rx="14" fill="#0f6cbd"/>
  <path d="M20 16h24a8 8 0 0 1 8 8v32a8 8 0 0 1-8 8H20z" fill="#107c41"/>
  <path d="M52 20h10a6 6 0 0 1 6 6v28a6 6 0 0 1-6 6H52z" fill="#33c481"/>
  <path d="M18 24h18v32H18z" fill="#185c37"/>
  <path d="m24 49 5-9-4.7-8H29l3 5.6 3-5.6h4.5l-4.7 8 5 9h-4.8L32 43l-3.2 6z" fill="#fff"/>
</svg>
