<svg xmlns="http://www.w3.org/2000/svg" width="32" height="32" viewBox="0 0 32 32" role="img" aria-labelledby="title">
  <title>Excel Compare icono 32</title>
  <rect width="32" height="32" rx="6" fill="#0f6cbd"/>
  <path d="M9 8h8a3 3 0 0 1 3 3v10a3 3 0 0 1-3 3H9z" fill="#107c41"/>
  <path d="M20 10h3a2 2 0 0 1 2 2v8a2 2 0 0 1-2 2h-3z" fill="#33c481"/>
  <path d="M8.2 11.2h5.5v9.6H8.2z" fill="#185c37"/>
  <path d="m10.1 18.8 1.5-2.4-1.4-2.3h1.5l.8 1.5.8-1.5h1.4l-1.4 2.3 1.5 2.4h-1.5l-.9-1.6-.9 1.6z" fill="#fff"/>
</svg>
